<svg width="1487" height="153" viewBox="0 0 1487 153" fill="none" xmlns="http://www.w3.org/2000/svg">
<g clip-path="url(#clip0)">
<path d="M103.596 48.8323C111.353 57.5412 115.232 69.516 115.232 84.7567V150.851H80.3245V88.9557C80.7266 82.4479 78.5684 76.0413 74.3128 71.1101C72.2716 68.9529 69.792 67.2602 67.0418 66.1468C64.2916 65.0333 61.3349 64.525 58.3718 64.6562C55.2556 64.5097 52.1442 65.0342 49.2473 66.1945C46.3503 67.3547 43.735 69.1236 41.5774 71.3822C37.1289 76.75 34.9073 83.6257 35.3717 90.5886V150.968H0.464355V37.1685H35.3717V57.9689C38.525 51.2797 43.5867 45.6781 49.9164 41.8728C56.7808 37.8178 64.6408 35.7707 72.6062 35.9632C78.3981 35.6908 84.1786 36.7029 89.5354 38.9273C94.8922 41.1518 99.6932 44.5339 103.596 48.8323V48.8323Z" fill="white"/>
<path d="M242.915 100.386H163.986C164.4 108.94 166.572 115.096 170.502 118.854C174.584 122.638 179.994 124.651 185.551 124.453C190.143 124.632 194.663 123.263 198.389 120.565C201.697 118.099 204.065 114.573 205.099 110.573H241.946C240.497 118.447 237.14 125.843 232.171 132.112C227.045 138.504 220.496 143.603 213.05 147.003C204.252 150.826 194.722 152.662 185.137 152.379C175.551 152.097 166.145 149.704 157.586 145.37C149.023 140.708 141.99 133.659 137.34 125.075C132.555 115.408 130.066 104.762 130.066 93.9711C130.066 83.1798 132.555 72.5347 137.34 62.8677C141.957 54.2782 149 47.2455 157.586 42.6506C166.817 38.0481 176.986 35.6528 187.296 35.6528C197.606 35.6528 207.775 38.0481 217.006 42.6506C225.361 47.0703 232.259 53.8226 236.865 62.0902C241.669 70.9303 244.089 80.874 243.885 90.9386C243.862 94.1116 243.538 97.2752 242.915 100.386V100.386ZM202.772 68.8552C198.518 65.0462 192.957 63.0393 187.257 63.2565C181.435 63.0569 175.758 65.1024 171.394 68.9718C166.915 73.3873 164.351 79.3935 164.257 85.69H208.628C208.953 82.6245 208.596 79.5251 207.583 76.6144C206.57 73.7037 204.927 71.0538 202.772 68.8552Z" fill="white"/>
<path d="M294.811 0V150.968H259.904V0H294.811Z" fill="white"/>
<path d="M351.593 37.1686V151.007H316.686V37.1686H351.593Z" fill="white"/>
<path d="M449.373 46.4998C458.01 53.7717 463.75 63.9141 465.547 75.0761H432.967C432.232 70.7749 429.956 66.8903 426.567 64.151C422.979 61.4447 418.565 60.0705 414.078 60.2631C410.872 60.0395 407.688 60.9473 405.08 62.8292C404.058 63.7231 403.254 64.8396 402.73 66.0931C402.206 67.3466 401.975 68.7038 402.054 70.0607C402.089 71.7716 402.641 73.4317 403.639 74.8205C404.637 76.2093 406.032 77.2612 407.64 77.8365C413.304 80.2335 419.207 82.019 425.248 83.163C432.498 84.7721 439.637 86.85 446.619 89.3837C452.228 91.5265 457.195 95.0735 461.048 99.6866C465.371 105.104 467.552 111.927 467.176 118.854C467.287 125.047 465.44 131.117 461.901 136.194C458.022 141.51 452.725 145.62 446.619 148.052C439.113 151.057 431.079 152.512 422.999 152.329C407.691 152.329 395.422 148.921 386.191 142.104C381.562 138.632 377.679 134.261 374.773 129.251C371.868 124.241 369.999 118.695 369.28 112.944H402.869C403.018 115.154 403.651 117.303 404.724 119.238C405.796 121.174 407.282 122.848 409.075 124.142C413.187 126.886 418.063 128.248 422.999 128.03C426.227 128.282 429.429 127.295 431.958 125.269C432.971 124.367 433.772 123.25 434.302 121.999C434.831 120.748 435.078 119.395 435.022 118.038C435.087 116.218 434.584 114.423 433.583 112.904C432.582 111.385 431.132 110.216 429.437 109.562C423.534 107.22 417.433 105.411 411.208 104.158C404.161 102.78 397.226 100.883 390.457 98.4814C385.017 96.4181 380.187 93.0074 376.417 88.5672C372.217 83.2898 370.104 76.6458 370.483 69.9052C370.352 65.1466 371.337 60.4236 373.358 56.1157C375.379 51.8078 378.379 48.0349 382.118 45.1002C389.876 38.8018 400.774 35.6137 414.854 35.6137C427.287 35.0044 439.528 38.8648 449.373 46.4998V46.4998Z" fill="white"/>
<path d="M549.983 41.6007C556.128 45.4423 560.959 51.0709 563.83 57.7356V37.1684H598.388V151.007H563.791V130.479C560.92 137.143 556.09 142.772 549.945 146.614C543.201 150.685 535.435 152.736 527.565 152.523C518.687 152.643 509.963 150.2 502.432 145.486C494.81 140.508 488.747 133.473 484.939 125.191C480.706 115.371 478.523 104.786 478.523 94.0877C478.523 83.3897 480.706 72.8049 484.939 62.9843C488.759 54.7313 494.821 47.7244 502.432 42.767C509.963 38.0528 518.687 35.6099 527.565 35.7299C535.444 35.4984 543.224 37.5359 549.983 41.6007V41.6007ZM520.816 73.6372C516.386 79.5156 513.99 86.6817 513.99 94.0488C513.99 101.416 516.386 108.582 520.816 114.46C525.624 119.206 532.113 121.847 538.861 121.803C545.609 121.76 552.063 119.035 556.81 114.227C561.356 108.466 563.829 101.336 563.829 93.9904C563.829 86.6451 561.356 79.5148 556.81 73.7538C552.018 69.0053 545.551 66.3421 538.813 66.3421C532.075 66.3421 525.608 69.0053 520.816 73.7538V73.6372Z" fill="white"/>
<path d="M799.843 41.6009C805.988 45.4424 810.818 51.071 813.689 57.7357V37.1686H848.286V151.007H813.689V130.479C810.818 137.144 805.988 142.772 799.843 146.614C793.099 150.685 785.333 152.736 777.463 152.523C768.585 152.643 759.861 150.2 752.33 145.486C744.699 140.519 738.632 133.481 734.837 125.191C730.605 115.371 728.421 104.786 728.421 94.0879C728.421 83.3899 730.605 72.805 734.837 62.9845C738.645 54.7233 744.71 47.7132 752.33 42.7672C759.861 38.053 768.585 35.6101 777.463 35.73C785.329 35.5061 793.095 37.5432 799.843 41.6009V41.6009ZM770.637 73.6373C766.231 79.526 763.849 86.6882 763.849 94.049C763.849 101.41 766.231 108.572 770.637 114.461C775.451 119.209 781.947 121.851 788.701 121.807C795.455 121.763 801.916 119.038 806.669 114.227C811.215 108.466 813.688 101.336 813.688 93.9906C813.688 86.6452 811.215 79.5149 806.669 73.754C801.866 69.0123 795.394 66.3545 788.653 66.3545C781.911 66.3545 775.44 69.0123 770.637 73.754V73.6373Z" fill="white"/>
<path d="M905.069 0V150.968H870.162V0H905.069Z" fill="white"/>
<path d="M1015.18 47.8603C1025.28 56.3017 1031.94 68.1532 1033.92 81.1798H997.069C996.217 76.7071 993.846 72.6682 990.359 69.7493C986.648 67.0233 982.118 65.6515 977.521 65.8614C974.624 65.8068 971.754 66.4324 969.141 67.688C966.528 68.9437 964.244 70.7946 962.472 73.0929C958.616 79.4565 956.577 86.759 956.577 94.2044C956.577 101.65 958.616 108.952 962.472 115.316C964.244 117.614 966.528 119.465 969.141 120.721C971.754 121.976 974.624 122.602 977.521 122.547C982.143 122.721 986.682 121.278 990.359 118.465C993.856 115.571 996.23 111.54 997.069 107.073H1033.92C1031.93 120.107 1025.27 131.967 1015.18 140.432C1004.71 148.709 991.661 153.006 978.336 152.562C968.026 152.745 957.836 150.325 948.703 145.525C940.14 140.863 933.107 133.814 928.457 125.23C923.672 115.563 921.183 104.918 921.183 94.1266C921.183 83.3353 923.672 72.6901 928.457 63.0232C933.074 54.4336 940.117 47.4009 948.703 42.806C957.867 38.017 968.08 35.5981 978.413 35.7689C991.707 35.3362 1004.73 39.6178 1015.18 47.8603V47.8603Z" fill="white"/>
<path d="M1115.52 41.6007C1121.65 45.4665 1126.47 51.0878 1129.37 57.7356V37.1684H1163.96V151.007H1129.37V130.479C1126.47 137.126 1121.65 142.748 1115.52 146.614C1108.76 150.684 1100.98 152.734 1093.1 152.523C1084.23 152.643 1075.5 150.2 1067.97 145.486C1060.35 140.508 1054.28 133.473 1050.48 125.191C1046.24 115.371 1044.06 104.786 1044.06 94.0877C1044.06 83.3897 1046.24 72.8048 1050.48 62.9843C1054.3 54.7313 1060.36 47.7243 1067.97 42.767C1075.5 38.0528 1084.23 35.6099 1093.1 35.7299C1100.98 35.5071 1108.76 37.5439 1115.52 41.6007V41.6007ZM1086.32 73.6372C1081.89 79.5156 1079.49 86.6817 1079.49 94.0488C1079.49 101.416 1081.89 108.582 1086.32 114.46C1091.12 119.206 1097.61 121.847 1104.36 121.803C1111.11 121.76 1117.56 119.035 1122.31 114.227C1126.88 108.478 1129.37 101.343 1129.37 93.9904C1129.37 86.6379 1126.88 79.5031 1122.31 73.7538C1117.52 69.0052 1111.05 66.3421 1104.31 66.3421C1097.57 66.3421 1091.11 69.0052 1086.32 73.7538V73.6372Z" fill="white"/>
<path d="M1220.71 0V150.968H1185.8V0H1220.71Z" fill="white"/>
<path d="M1308.17 41.6009C1314.3 45.4084 1319.08 51.0536 1321.82 57.7358V0H1356.73V150.968H1321.82V130.479C1319.08 137.161 1314.3 142.806 1308.17 146.614C1301.43 150.689 1293.66 152.74 1285.79 152.523C1276.91 152.643 1268.19 150.2 1260.66 145.486C1253.04 140.508 1246.97 133.473 1243.17 125.191C1238.93 115.371 1236.75 104.786 1236.75 94.0879C1236.75 83.3899 1238.93 72.805 1243.17 62.9845C1246.98 54.7315 1253.05 47.7245 1260.66 42.7672C1268.19 38.053 1276.91 35.6101 1285.79 35.7301C1293.66 35.5017 1301.42 37.5392 1308.17 41.6009V41.6009ZM1279 73.6374C1274.57 79.5158 1272.18 86.6819 1272.18 94.049C1272.18 101.416 1274.57 108.582 1279 114.461C1283.81 119.207 1290.3 121.847 1297.05 121.804C1303.8 121.76 1310.25 119.035 1315 114.227C1319.54 108.466 1322.02 101.336 1322.02 93.9906C1322.02 86.6453 1319.54 79.515 1315 73.754C1310.2 69.0054 1303.74 66.3423 1297 66.3423C1290.26 66.3423 1283.8 69.0054 1279 73.754V73.6374Z" fill="white"/>
<path d="M1485.5 100.386H1406.73C1407.17 108.94 1409.34 115.096 1413.24 118.854C1417.32 122.638 1422.73 124.651 1428.29 124.453C1432.88 124.638 1437.41 123.268 1441.13 120.565C1444.44 118.099 1446.8 114.573 1447.84 110.573H1484.69C1483.25 118.452 1479.9 125.852 1474.91 132.112C1469.78 138.504 1463.24 143.603 1455.79 147.003C1446.99 150.826 1437.46 152.662 1427.88 152.379C1418.29 152.097 1408.89 149.704 1400.33 145.37C1391.76 140.708 1384.73 133.659 1380.08 125.075C1375.3 115.408 1372.81 104.762 1372.81 93.9711C1372.81 83.1798 1375.3 72.5347 1380.08 62.8677C1384.7 54.2782 1391.74 47.2455 1400.33 42.6506C1409.56 38.0481 1419.73 35.6528 1430.04 35.6528C1440.35 35.6528 1450.52 38.0481 1459.75 42.6506C1468.1 47.0703 1475 53.8226 1479.6 62.0902C1484.41 70.9303 1486.83 80.874 1486.62 90.9386C1486.55 94.1165 1486.17 97.2803 1485.5 100.386V100.386ZM1445.28 68.8552C1441.03 65.0462 1435.46 63.0393 1429.76 63.2565C1423.94 63.0569 1418.26 65.1024 1413.9 68.9718C1409.44 73.3992 1406.88 79.3979 1406.76 85.69H1451.29C1451.59 82.6127 1451.21 79.5061 1450.17 76.5947C1449.13 73.6833 1447.46 71.0398 1445.28 68.8552V68.8552Z" fill="white"/>
<path d="M662.152 128.302C678.197 128.302 691.203 115.264 691.203 99.181C691.203 83.0981 678.197 70.0604 662.152 70.0604C646.108 70.0604 633.102 83.0981 633.102 99.181C633.102 115.264 646.108 128.302 662.152 128.302Z" fill="#36A9E1"/>
</g>
<defs>
<clipPath id="clip0">
<rect width="1485.97" height="152.407" fill="white" transform="translate(0.542236)"/>
</clipPath>
</defs>
</svg>
